<svg xmlns="http://www.w3.org/2000/svg" xmlns:xlink="http://www.w3.org/1999/xlink" width="600" zoomAndPan="magnify" viewBox="0 0 450 140.249994" height="187" preserveAspectRatio="xMidYMid meet" version="1.0"><path fill="#ab0dff" d="M 52.207031 26.835938 C 64.988281 26.542969 76.113281 37.128906 75.917969 49.863281 C 76.113281 62.597656 64.988281 73.1875 52.207031 72.894531 C 39.421875 73.1875 28.445312 62.597656 28.640625 49.863281 C 28.445312 37.128906 39.421875 26.542969 52.207031 26.835938 Z M 52.300781 35.226562 C 44.105469 35.226562 38.007812 41.277344 38.007812 49.816406 C 38.007812 58.355469 44.058594 64.402344 52.300781 64.402344 C 60.546875 64.402344 66.597656 58.355469 66.597656 49.816406 C 66.597656 41.277344 60.449219 35.226562 52.300781 35.226562 Z M 52.300781 35.226562 " fill-opacity="1" fill-rule="nonzero"/><path fill="#333333" d="M 94.945312 39.570312 L 102.261719 39.570312 L 102.261719 47.230469 L 94.945312 47.230469 L 94.945312 72.894531 L 85.871094 72.894531 L 85.871094 47.230469 L 81.136719 47.230469 L 81.136719 39.570312 L 85.871094 39.570312 L 85.871094 34.105469 C 85.871094 25.761719 90.699219 21.566406 98.75 21.566406 C 106.800781 21.566406 102.164062 21.859375 103.726562 22.296875 L 103.726562 29.910156 C 102.703125 29.765625 101.824219 29.714844 101.042969 29.714844 C 96.945312 29.714844 94.992188 31.128906 94.992188 34.886719 L 94.992188 39.523438 Z M 94.945312 39.570312 " fill-opacity="1" fill-rule="nonzero"/><path fill="#333333" d="M 120.023438 39.570312 L 127.339844 39.570312 L 127.339844 47.230469 L 120.023438 47.230469 L 120.023438 72.894531 L 110.945312 72.894531 L 110.945312 47.230469 L 106.214844 47.230469 L 106.214844 39.570312 L 110.945312 39.570312 L 110.945312 34.105469 C 110.945312 25.761719 115.777344 21.566406 123.828125 21.566406 C 131.878906 21.566406 127.242188 21.859375 128.804688 22.296875 L 128.804688 29.910156 C 127.777344 29.765625 126.902344 29.714844 126.121094 29.714844 C 122.023438 29.714844 120.070312 31.128906 120.070312 34.886719 L 120.070312 39.523438 Z M 137.925781 21.761719 C 141.148438 21.761719 143.78125 24.203125 143.78125 27.421875 C 143.78125 30.640625 141.148438 33.03125 137.925781 33.03125 C 134.707031 33.03125 132.121094 30.59375 132.121094 27.421875 C 132.121094 24.25 134.660156 21.761719 137.925781 21.761719 Z M 133.441406 39.570312 L 142.515625 39.570312 L 142.515625 72.894531 L 133.441406 72.894531 Z M 133.441406 39.570312 " fill-opacity="1" fill-rule="nonzero"/><path fill="#333333" d="M 168.175781 38.742188 C 174.566406 38.742188 179.496094 41.765625 182.324219 46.792969 L 176.128906 51.621094 C 174.078125 48.644531 171.6875 46.886719 168.273438 46.886719 C 163.25 46.886719 159.6875 50.695312 159.6875 55.765625 C 159.6875 60.839844 163.25 64.746094 168.273438 64.746094 C 173.300781 64.746094 174.03125 63.039062 176.128906 60.0625 L 182.324219 64.792969 C 179.496094 69.820312 174.472656 72.894531 168.175781 72.894531 C 158.613281 73.085938 150.5625 65.183594 150.710938 55.765625 C 150.710938 46.203125 158.46875 38.789062 168.175781 38.789062 Z M 168.175781 38.742188 " fill-opacity="1" fill-rule="nonzero"/><path fill="#333333" d="M 196.960938 58.792969 C 198.035156 62.941406 201.402344 65.234375 206.136719 65.234375 C 210.867188 65.234375 212.378906 64.113281 215.210938 61.917969 L 218.917969 67.964844 C 215.015625 71.1875 210.671875 72.84375 205.890625 72.84375 C 195.789062 73.039062 187.839844 65.183594 188.03125 55.765625 C 187.839844 46.351562 195.695312 38.496094 205.109375 38.691406 C 214.136719 38.691406 220.476562 45.328125 220.476562 53.867188 C 220.476562 62.40625 220.285156 57.085938 219.894531 58.746094 L 197.011719 58.746094 Z M 211.792969 52.5 C 211.746094 48.5 208.625 45.914062 204.71875 45.914062 C 200.816406 45.914062 197.9375 48.5 196.960938 52.5 Z M 211.792969 52.5 " fill-opacity="1" fill-rule="nonzero"/><path fill="#ab0dff" d="M 254.242188 36.644531 L 240.042969 36.644531 L 240.042969 28.445312 L 277.613281 28.445312 L 277.613281 36.644531 L 263.316406 36.644531 L 263.316406 72.894531 L 254.242188 72.894531 Z M 254.242188 36.644531 " fill-opacity="1" fill-rule="nonzero"/><path fill="#ab0dff" d="M 290.734375 38.742188 C 300.296875 38.59375 308.445312 46.449219 308.25 55.71875 C 308.445312 64.988281 300.199219 72.992188 290.636719 72.796875 C 281.074219 72.992188 273.023438 65.035156 273.21875 55.71875 C 273.023438 46.449219 281.125 38.546875 290.683594 38.742188 Z M 290.734375 46.839844 C 285.804688 46.839844 282.292969 50.597656 282.292969 55.816406 C 282.292969 61.039062 285.757812 64.648438 290.734375 64.648438 C 295.710938 64.648438 299.175781 60.890625 299.175781 55.816406 C 299.175781 50.742188 295.5625 46.839844 290.734375 46.839844 Z M 290.734375 46.839844 " fill-opacity="1" fill-rule="nonzero"/><path fill="#ab0dff" d="M 344.890625 22.296875 L 344.890625 72.796875 L 336.546875 72.796875 L 336.546875 68.695312 C 334.351562 71.867188 330.449219 72.796875 325.863281 72.796875 C 316.59375 72.796875 309.714844 66.207031 309.714844 56.160156 C 309.714844 46.109375 316.59375 38.742188 325.863281 38.742188 C 335.132812 38.742188 333.425781 40.105469 335.816406 42.691406 L 335.816406 22.296875 Z M 327.519531 46.9375 C 322.640625 46.9375 318.886719 50.644531 318.886719 56.109375 C 318.886719 61.574219 322.59375 65.332031 327.519531 65.332031 C 332.449219 65.332031 335.914062 62.160156 335.914062 56.160156 C 335.914062 50.15625 332.058594 46.9375 327.519531 46.9375 Z M 327.519531 46.9375 " fill-opacity="1" fill-rule="nonzero"/><path fill="#ab0dff" d="M 381.53125 39.570312 L 381.53125 72.84375 L 373.042969 72.84375 L 373.042969 68.941406 C 370.699219 71.964844 366.992188 72.84375 362.453125 72.84375 C 353.183594 72.84375 346.304688 66.257812 346.304688 56.207031 C 346.304688 46.15625 353.183594 38.789062 362.453125 38.789062 C 371.722656 38.789062 370.796875 40.546875 373.140625 43.71875 L 373.140625 39.617188 L 381.480469 39.617188 Z M 364.160156 46.9375 C 359.28125 46.9375 355.527344 50.695312 355.527344 56.160156 C 355.527344 61.621094 359.28125 65.332031 364.160156 65.332031 C 369.039062 65.332031 372.554688 62.160156 372.554688 56.160156 C 372.554688 50.15625 368.699219 46.9375 364.160156 46.9375 Z M 364.160156 46.9375 " fill-opacity="1" fill-rule="nonzero"/><path fill="#ab0dff" d="M 418.953125 39.570312 L 403 75.722656 C 399.972656 82.652344 395.925781 85.773438 389.726562 85.773438 C 383.53125 85.773438 385.871094 85.480469 383.871094 84.945312 L 383.871094 77.332031 C 385.972656 77.527344 387.238281 77.625 387.777344 77.625 C 390.996094 77.625 393.144531 76.601562 394.707031 73.136719 L 395.730469 70.84375 L 382.945312 39.617188 L 392.605469 39.617188 L 400.753906 61.429688 L 409.4375 39.617188 L 419 39.617188 Z M 418.953125 39.570312 " fill-opacity="1" fill-rule="nonzero"/><path fill="#ab0dff" d="M 76.988281 92.652344 L 81.089844 92.652344 L 81.089844 112.707031 L 76.988281 112.707031 Z M 76.988281 92.652344 " fill-opacity="1" fill-rule="nonzero"/><path fill="#ab0dff" d="M 90.164062 96.359375 L 83.769531 96.359375 L 83.769531 92.652344 L 100.75 92.652344 L 100.75 96.359375 L 94.308594 96.359375 L 94.308594 112.707031 L 90.210938 112.707031 L 90.210938 96.359375 Z M 90.164062 96.359375 " fill-opacity="1" fill-rule="nonzero"/><path fill="#333333" d="M 128.121094 97.921875 L 125.484375 112.707031 L 123.289062 112.707031 L 123.632812 110.753906 C 122.363281 112.21875 120.460938 113.046875 118.265625 113.046875 C 114.460938 113.046875 111.628906 110.023438 111.628906 106.019531 C 111.53125 101.386719 115.242188 97.480469 119.632812 97.582031 C 122.070312 97.582031 124.167969 98.703125 125.289062 100.460938 L 125.730469 97.921875 Z M 119.828125 99.726562 C 116.65625 99.726562 114.070312 102.507812 114.070312 105.875 C 114.070312 109.242188 114.507812 108.558594 115.4375 109.484375 C 116.363281 110.410156 117.53125 110.898438 118.949219 110.898438 C 122.070312 110.898438 124.558594 108.070312 124.558594 104.460938 C 124.558594 100.847656 122.65625 99.726562 119.828125 99.726562 Z M 119.828125 99.726562 " fill-opacity="1" fill-rule="nonzero"/><path fill="#333333" d="M 134.558594 107.875 C 134.511719 108.167969 134.464844 108.460938 134.464844 108.703125 C 134.464844 110.363281 135.683594 110.949219 137.78125 110.949219 C 139.878906 110.949219 138.464844 110.949219 139.195312 110.898438 L 138.855469 112.902344 C 138.269531 112.996094 137.730469 113.046875 137.148438 113.046875 C 134.269531 113.046875 132.167969 111.925781 132.167969 109.046875 C 132.167969 106.167969 132.167969 108.316406 132.269531 107.875 L 133.632812 100.019531 L 131.195312 100.019531 L 131.488281 97.921875 L 134.023438 97.921875 L 134.707031 93.875 L 137.046875 93.875 L 136.316406 97.921875 L 140.953125 97.921875 L 140.609375 100.019531 L 135.976562 100.019531 Z M 134.558594 107.875 " fill-opacity="1" fill-rule="nonzero"/><path fill="#333333" d="M 165.980469 97.921875 L 163.394531 112.605469 C 162.761719 116.265625 160.125 118.511719 156.664062 118.511719 C 153.199219 118.511719 151.734375 117.242188 150.367188 115.097656 L 151.929688 113.582031 C 153.199219 115.390625 154.808594 116.316406 156.664062 116.316406 C 158.515625 116.316406 160.613281 114.902344 161.054688 112.460938 L 161.296875 111.046875 C 160.222656 112.070312 158.710938 112.605469 157.152344 112.605469 C 154.125 112.605469 152.125 110.707031 152.125 107.777344 C 152.125 104.851562 152.171875 106.851562 152.320312 106.117188 L 153.785156 97.875 L 156.125 97.875 L 154.613281 106.214844 C 154.515625 106.75 154.46875 107.191406 154.46875 107.484375 C 154.46875 109.386719 155.734375 110.511719 157.734375 110.511719 C 159.734375 110.511719 161.6875 109.191406 162.078125 106.898438 L 163.636719 97.921875 Z M 165.980469 97.921875 " fill-opacity="1" fill-rule="nonzero"/><path fill="#333333" d="M 177.105469 97.582031 C 181.253906 97.582031 184.472656 100.753906 184.472656 104.949219 C 184.570312 109.289062 180.667969 113.144531 176.226562 113.046875 C 172.078125 113.046875 168.910156 109.875 168.910156 105.679688 C 168.8125 101.335938 172.714844 97.480469 177.105469 97.582031 Z M 177.007812 99.726562 C 173.835938 99.726562 171.300781 102.359375 171.300781 105.679688 C 171.300781 108.996094 171.738281 108.460938 172.714844 109.433594 C 173.640625 110.410156 174.859375 110.898438 176.324219 110.898438 C 179.59375 110.898438 182.082031 108.265625 182.082031 104.949219 C 182.082031 101.628906 179.933594 99.777344 177.007812 99.777344 Z M 177.007812 99.726562 " fill-opacity="1" fill-rule="nonzero"/><path fill="#333333" d="M 188.226562 106.410156 L 189.691406 97.921875 L 192.035156 97.921875 L 190.472656 106.703125 C 190.472656 106.898438 190.425781 107.191406 190.425781 107.582031 C 190.425781 109.535156 191.886719 110.898438 193.9375 110.898438 C 195.988281 110.898438 197.597656 109.535156 197.984375 107.433594 L 199.644531 97.921875 L 201.988281 97.921875 L 200.328125 107.484375 C 200.035156 109.144531 199.304688 110.511719 198.132812 111.535156 C 196.960938 112.558594 195.546875 113.046875 193.886719 113.046875 C 190.523438 113.046875 188.179688 110.800781 188.179688 107.679688 C 188.179688 104.554688 188.179688 106.851562 188.277344 106.410156 Z M 188.226562 106.410156 " fill-opacity="1" fill-rule="nonzero"/><path fill="#333333" d="M 214.574219 100.019531 C 214.085938 99.921875 213.648438 99.921875 213.257812 99.921875 C 210.71875 99.921875 208.769531 101.582031 208.378906 104.066406 L 206.867188 112.753906 L 204.523438 112.753906 L 207.160156 97.96875 L 209.355469 97.96875 L 209.0625 99.582031 C 210.183594 98.410156 211.695312 97.777344 213.453125 97.777344 C 215.210938 97.777344 214.527344 97.875 215.015625 98.019531 L 214.621094 100.070312 Z M 214.574219 100.019531 " fill-opacity="1" fill-rule="nonzero"/><path fill="#333333" d="M 225.601562 92.652344 L 238.773438 92.652344 L 238.773438 96.359375 L 229.699219 96.359375 L 229.699219 101.386719 L 237.164062 101.386719 L 237.164062 105.09375 L 229.699219 105.09375 L 229.699219 112.707031 L 225.601562 112.707031 Z M 225.601562 92.652344 " fill-opacity="1" fill-rule="nonzero"/><path fill="#333333" d="M 243.847656 89.675781 C 245.3125 89.675781 246.484375 90.75 246.484375 92.214844 C 246.484375 93.679688 245.3125 94.75 243.847656 94.75 C 242.382812 94.75 241.210938 93.679688 241.210938 92.214844 C 241.210938 90.75 242.382812 89.675781 243.847656 89.675781 Z M 241.847656 97.675781 L 245.945312 97.675781 L 245.945312 112.707031 L 241.847656 112.707031 Z M 241.847656 97.675781 " fill-opacity="1" fill-rule="nonzero"/><path fill="#333333" d="M 264.292969 112.707031 L 260.242188 112.707031 L 260.242188 103.921875 C 260.242188 102.214844 259.121094 100.996094 257.460938 100.996094 C 255.800781 100.996094 254.582031 102.167969 254.582031 103.921875 L 254.582031 112.707031 L 250.484375 112.707031 L 250.484375 97.675781 L 254.242188 97.675781 L 254.242188 99.042969 C 255.3125 97.96875 256.875 97.335938 258.632812 97.335938 C 262.144531 97.335938 264.292969 99.726562 264.292969 103.386719 Z M 264.292969 112.707031 " fill-opacity="1" fill-rule="nonzero"/><path fill="#333333" d="M 283.757812 97.675781 L 283.757812 111.046875 C 283.757812 115.925781 280.683594 118.558594 276 118.558594 C 271.316406 118.558594 270.730469 117.632812 268.632812 115.777344 L 270.78125 112.902344 C 272.4375 114.167969 273.851562 114.851562 275.660156 114.851562 C 277.464844 114.851562 279.660156 113.632812 279.660156 111.289062 L 279.660156 110.460938 C 278.585938 111.628906 276.976562 112.265625 275.074219 112.265625 C 270.925781 112.265625 267.855469 109.191406 267.855469 104.800781 C 267.855469 100.410156 270.925781 97.335938 275.074219 97.335938 C 279.21875 97.335938 278.929688 98.117188 280 99.53125 L 280 97.628906 L 283.757812 97.628906 Z M 275.902344 100.847656 C 273.707031 100.847656 272 102.359375 272 104.75 C 272 107.144531 273.707031 108.800781 275.902344 108.800781 C 278.097656 108.800781 279.707031 107.289062 279.707031 104.75 C 279.707031 102.214844 278 100.847656 275.902344 100.847656 Z M 275.902344 100.847656 " fill-opacity="1" fill-rule="nonzero"/><path fill="#333333" d="M 291.515625 106.558594 C 292.003906 108.460938 293.566406 109.535156 295.761719 109.535156 C 297.957031 109.535156 298.640625 108.996094 299.957031 108.023438 L 301.664062 110.800781 C 299.859375 112.3125 297.859375 113.046875 295.664062 113.046875 C 291.027344 113.144531 287.320312 109.535156 287.417969 105.191406 C 287.320312 100.847656 290.929688 97.238281 295.273438 97.335938 C 299.417969 97.335938 302.347656 100.410156 302.347656 104.3125 C 302.347656 108.214844 302.25 105.828125 302.054688 106.558594 Z M 298.347656 103.679688 C 298.347656 101.824219 296.882812 100.652344 295.078125 100.652344 C 293.273438 100.652344 291.953125 101.824219 291.515625 103.679688 Z M 298.347656 103.679688 " fill-opacity="1" fill-rule="nonzero"/><path fill="#333333" d="M 315.277344 101.289062 L 314.203125 101.289062 C 311.765625 101.289062 310.152344 102.605469 310.152344 105.191406 L 310.152344 112.707031 L 306.054688 112.707031 L 306.054688 97.675781 L 309.8125 97.675781 L 309.8125 99.484375 C 310.835938 98.214844 312.25 97.53125 313.960938 97.53125 C 315.667969 97.53125 314.882812 97.582031 315.277344 97.726562 L 315.277344 101.335938 Z M 315.277344 101.289062 " fill-opacity="1" fill-rule="nonzero"/><path fill="#333333" d="M 328.351562 112.707031 C 327.375 112.949219 326.449219 113.046875 325.519531 113.046875 C 321.714844 113.046875 319.519531 111.144531 319.519531 107.386719 L 319.519531 101.09375 L 317.128906 101.09375 L 317.128906 97.628906 L 319.519531 97.628906 L 319.519531 93.824219 L 323.617188 93.824219 L 323.617188 97.628906 L 327.863281 97.628906 L 327.863281 101.09375 L 323.617188 101.09375 L 323.617188 106.996094 C 323.617188 108.703125 324.449219 109.339844 326.402344 109.339844 C 328.351562 109.339844 327.277344 109.339844 328.351562 109.191406 Z M 328.351562 112.707031 " fill-opacity="1" fill-rule="nonzero"/><path fill="#333333" d="M 333.863281 89.675781 C 335.328125 89.675781 336.5 90.75 336.5 92.214844 C 336.5 93.679688 335.328125 94.75 333.863281 94.75 C 332.398438 94.75 331.230469 93.679688 331.230469 92.214844 C 331.230469 90.75 332.398438 89.675781 333.863281 89.675781 Z M 331.863281 97.675781 L 335.960938 97.675781 L 335.960938 112.707031 L 331.863281 112.707031 Z M 331.863281 97.675781 " fill-opacity="1" fill-rule="nonzero"/><path fill="#333333" d="M 349.085938 113.09375 C 347.28125 113.09375 345.671875 112.460938 344.597656 111.289062 L 344.597656 118.21875 L 340.5 118.21875 L 340.5 97.726562 L 344.257812 97.726562 L 344.257812 99.628906 C 345.28125 98.214844 347.035156 97.433594 349.085938 97.433594 C 353.28125 97.433594 356.355469 100.800781 356.355469 105.289062 C 356.355469 109.777344 353.234375 113.195312 349.085938 113.195312 Z M 348.304688 101.042969 C 346.257812 101.042969 344.5 102.460938 344.5 105.191406 C 344.5 107.921875 346.207031 109.339844 348.304688 109.339844 C 350.402344 109.339844 352.207031 107.679688 352.207031 105.191406 C 352.207031 102.703125 350.550781 101.042969 348.304688 101.042969 Z M 348.304688 101.042969 " fill-opacity="1" fill-rule="nonzero"/><path fill="#333333" d="M 360.554688 107.679688 C 361.871094 109.046875 363.285156 109.730469 364.796875 109.730469 C 366.308594 109.730469 366.699219 109.289062 366.699219 108.460938 C 366.699219 107.632812 366.261719 107.582031 365.136719 107.09375 L 363.527344 106.410156 C 360.746094 105.289062 359.429688 104.019531 359.429688 101.824219 C 359.429688 99.628906 361.671875 97.335938 364.945312 97.335938 C 368.210938 97.335938 368.992188 98.117188 370.359375 99.582031 L 368.308594 102.117188 C 367.285156 101.191406 366.164062 100.703125 364.945312 100.703125 C 363.722656 100.703125 363.332031 101.042969 363.332031 101.777344 C 363.332031 102.507812 363.722656 102.605469 364.894531 103.09375 L 366.355469 103.679688 C 369.285156 104.851562 370.601562 106.070312 370.601562 108.265625 C 370.601562 110.460938 370.066406 110.949219 368.945312 111.777344 C 367.871094 112.605469 366.457031 113.046875 364.75 113.046875 C 362.113281 113.046875 359.871094 111.972656 358.503906 110.117188 L 360.554688 107.632812 Z M 360.554688 107.679688 " fill-opacity="1" fill-rule="nonzero"/></svg>