<svg xmlns="http://www.w3.org/2000/svg" xmlns:xlink="http://www.w3.org/1999/xlink" width="1000" zoomAndPan="magnify" viewBox="0 0 750 749.999995" height="1000" preserveAspectRatio="xMidYMid meet" version="1.0"><path fill="#ab0dff" d="M 111.226562 308.550781 C 130.875 308.101562 147.976562 324.375 147.675781 343.949219 C 147.976562 363.523438 130.875 379.800781 111.226562 379.351562 C 91.574219 379.800781 74.699219 363.523438 75 343.949219 C 74.699219 324.375 91.574219 308.101562 111.226562 308.550781 Z M 111.375 321.449219 C 98.773438 321.449219 89.398438 330.75 89.398438 343.875 C 89.398438 357 98.699219 366.300781 111.375 366.300781 C 124.050781 366.300781 133.351562 357 133.351562 343.875 C 133.351562 330.75 123.898438 321.449219 111.375 321.449219 Z M 111.375 321.449219 " fill-opacity="1" fill-rule="nonzero"/><path fill="#333333" d="M 176.925781 328.125 L 188.175781 328.125 L 188.175781 339.898438 L 176.925781 339.898438 L 176.925781 379.351562 L 162.976562 379.351562 L 162.976562 339.898438 L 155.699219 339.898438 L 155.699219 328.125 L 162.976562 328.125 L 162.976562 319.726562 C 162.976562 306.898438 170.398438 300.449219 182.773438 300.449219 C 195.148438 300.449219 188.023438 300.898438 190.425781 301.574219 L 190.425781 313.273438 C 188.851562 313.050781 187.5 312.976562 186.300781 312.976562 C 180 312.976562 177 315.148438 177 320.925781 L 177 328.050781 Z M 176.925781 328.125 " fill-opacity="1" fill-rule="nonzero"/><path fill="#333333" d="M 215.476562 328.125 L 226.726562 328.125 L 226.726562 339.898438 L 215.476562 339.898438 L 215.476562 379.351562 L 201.523438 379.351562 L 201.523438 339.898438 L 194.25 339.898438 L 194.25 328.125 L 201.523438 328.125 L 201.523438 319.726562 C 201.523438 306.898438 208.949219 300.449219 221.324219 300.449219 C 233.699219 300.449219 226.574219 300.898438 228.976562 301.574219 L 228.976562 313.273438 C 227.398438 313.050781 226.050781 312.976562 224.851562 312.976562 C 218.550781 312.976562 215.550781 315.148438 215.550781 320.925781 L 215.550781 328.050781 Z M 243 300.75 C 247.949219 300.75 252 304.5 252 309.449219 C 252 314.398438 247.949219 318.074219 243 318.074219 C 238.050781 318.074219 234.074219 314.324219 234.074219 309.449219 C 234.074219 304.574219 237.976562 300.75 243 300.75 Z M 236.101562 328.125 L 250.050781 328.125 L 250.050781 379.351562 L 236.101562 379.351562 Z M 236.101562 328.125 " fill-opacity="1" fill-rule="nonzero"/><path fill="#333333" d="M 289.5 326.851562 C 299.324219 326.851562 306.898438 331.5 311.25 339.226562 L 301.726562 346.648438 C 298.574219 342.074219 294.898438 339.375 289.648438 339.375 C 281.925781 339.375 276.449219 345.226562 276.449219 353.023438 C 276.449219 360.824219 281.925781 366.824219 289.648438 366.824219 C 297.375 366.824219 298.5 364.199219 301.726562 359.625 L 311.25 366.898438 C 306.898438 374.625 299.175781 379.351562 289.5 379.351562 C 274.800781 379.648438 262.425781 367.5 262.648438 353.023438 C 262.648438 338.324219 274.574219 326.925781 289.5 326.925781 Z M 289.5 326.851562 " fill-opacity="1" fill-rule="nonzero"/><path fill="#333333" d="M 333.75 357.675781 C 335.398438 364.050781 340.574219 367.574219 347.851562 367.574219 C 355.125 367.574219 357.449219 365.851562 361.800781 362.476562 L 367.5 371.773438 C 361.5 376.726562 354.824219 379.273438 347.476562 379.273438 C 331.949219 379.574219 319.726562 367.5 320.023438 353.023438 C 319.726562 338.550781 331.800781 326.476562 346.273438 326.773438 C 360.148438 326.773438 369.898438 336.976562 369.898438 350.101562 C 369.898438 363.226562 369.601562 355.050781 369 357.601562 L 333.824219 357.601562 Z M 356.550781 348 C 356.476562 341.851562 351.675781 337.875 345.675781 337.875 C 339.675781 337.875 335.25 341.851562 333.75 348 Z M 356.550781 348 " fill-opacity="1" fill-rule="nonzero"/><path fill="#ab0dff" d="M 421.800781 323.625 L 399.976562 323.625 L 399.976562 311.023438 L 457.726562 311.023438 L 457.726562 323.625 L 435.75 323.625 L 435.75 379.351562 L 421.800781 379.351562 Z M 421.800781 323.625 " fill-opacity="1" fill-rule="nonzero"/><path fill="#ab0dff" d="M 477.898438 326.851562 C 492.601562 326.625 505.125 338.699219 504.824219 352.949219 C 505.125 367.199219 492.449219 379.5 477.75 379.199219 C 463.050781 379.5 450.675781 367.273438 450.976562 352.949219 C 450.675781 338.699219 463.125 326.550781 477.824219 326.851562 Z M 477.898438 339.300781 C 470.324219 339.300781 464.925781 345.074219 464.925781 353.101562 C 464.925781 361.125 470.25 366.675781 477.898438 366.675781 C 485.550781 366.675781 490.875 360.898438 490.875 353.101562 C 490.875 345.300781 485.324219 339.300781 477.898438 339.300781 Z M 477.898438 339.300781 " fill-opacity="1" fill-rule="nonzero"/><path fill="#ab0dff" d="M 561.148438 301.574219 L 561.148438 379.199219 L 548.324219 379.199219 L 548.324219 372.898438 C 544.949219 377.773438 538.949219 379.199219 531.898438 379.199219 C 517.648438 379.199219 507.074219 369.074219 507.074219 353.625 C 507.074219 338.175781 517.648438 326.851562 531.898438 326.851562 C 546.148438 326.851562 543.523438 328.949219 547.199219 332.925781 L 547.199219 301.574219 Z M 534.449219 339.449219 C 526.949219 339.449219 521.175781 345.148438 521.175781 353.550781 C 521.175781 361.949219 526.875 367.726562 534.449219 367.726562 C 542.023438 367.726562 547.351562 362.851562 547.351562 353.625 C 547.351562 344.398438 541.425781 339.449219 534.449219 339.449219 Z M 534.449219 339.449219 " fill-opacity="1" fill-rule="nonzero"/><path fill="#ab0dff" d="M 617.476562 328.125 L 617.476562 379.273438 L 604.425781 379.273438 L 604.425781 373.273438 C 600.824219 377.925781 595.125 379.273438 588.148438 379.273438 C 573.898438 379.273438 563.324219 369.148438 563.324219 353.699219 C 563.324219 338.25 573.898438 326.925781 588.148438 326.925781 C 602.398438 326.925781 600.976562 329.625 604.574219 334.5 L 604.574219 328.199219 L 617.398438 328.199219 Z M 590.773438 339.449219 C 583.273438 339.449219 577.5 345.226562 577.5 353.625 C 577.5 362.023438 583.273438 367.726562 590.773438 367.726562 C 598.273438 367.726562 603.675781 362.851562 603.675781 353.625 C 603.675781 344.398438 597.75 339.449219 590.773438 339.449219 Z M 590.773438 339.449219 " fill-opacity="1" fill-rule="nonzero"/><path fill="#ab0dff" d="M 675 328.125 L 650.476562 383.699219 C 645.824219 394.351562 639.601562 399.148438 630.074219 399.148438 C 620.550781 399.148438 624.148438 398.699219 621.074219 397.875 L 621.074219 386.175781 C 624.300781 386.476562 626.25 386.625 627.074219 386.625 C 632.023438 386.625 635.324219 385.050781 637.726562 379.726562 L 639.300781 376.199219 L 619.648438 328.199219 L 634.5 328.199219 L 647.023438 361.726562 L 660.375 328.199219 L 675.074219 328.199219 Z M 675 328.125 " fill-opacity="1" fill-rule="nonzero"/><path fill="#ab0dff" d="M 149.324219 409.726562 L 155.625 409.726562 L 155.625 440.550781 L 149.324219 440.550781 Z M 149.324219 409.726562 " fill-opacity="1" fill-rule="nonzero"/><path fill="#ab0dff" d="M 169.574219 415.425781 L 159.75 415.425781 L 159.75 409.726562 L 185.851562 409.726562 L 185.851562 415.425781 L 175.949219 415.425781 L 175.949219 440.550781 L 169.648438 440.550781 L 169.648438 415.425781 Z M 169.574219 415.425781 " fill-opacity="1" fill-rule="nonzero"/><path fill="#333333" d="M 227.925781 417.824219 L 223.875 440.550781 L 220.5 440.550781 L 221.023438 437.550781 C 219.074219 439.800781 216.148438 441.074219 212.773438 441.074219 C 206.925781 441.074219 202.574219 436.425781 202.574219 430.273438 C 202.425781 423.148438 208.125 417.148438 214.875 417.300781 C 218.625 417.300781 221.851562 419.023438 223.574219 421.726562 L 224.25 417.824219 Z M 215.175781 420.601562 C 210.300781 420.601562 206.324219 424.875 206.324219 430.050781 C 206.324219 435.226562 207 434.175781 208.425781 435.601562 C 209.851562 437.023438 211.648438 437.773438 213.824219 437.773438 C 218.625 437.773438 222.449219 433.425781 222.449219 427.875 C 222.449219 422.324219 219.523438 420.601562 215.175781 420.601562 Z M 215.175781 420.601562 " fill-opacity="1" fill-rule="nonzero"/><path fill="#333333" d="M 237.824219 433.125 C 237.75 433.574219 237.675781 434.023438 237.675781 434.398438 C 237.675781 436.949219 239.550781 437.851562 242.773438 437.851562 C 246 437.851562 243.824219 437.851562 244.949219 437.773438 L 244.425781 440.851562 C 243.523438 441 242.699219 441.074219 241.800781 441.074219 C 237.375 441.074219 234.148438 439.351562 234.148438 434.925781 C 234.148438 430.5 234.148438 433.800781 234.300781 433.125 L 236.398438 421.050781 L 232.648438 421.050781 L 233.101562 417.824219 L 237 417.824219 L 238.050781 411.601562 L 241.648438 411.601562 L 240.523438 417.824219 L 247.648438 417.824219 L 247.125 421.050781 L 240 421.050781 Z M 237.824219 433.125 " fill-opacity="1" fill-rule="nonzero"/><path fill="#333333" d="M 286.125 417.824219 L 282.148438 440.398438 C 281.175781 446.023438 277.125 449.476562 271.800781 449.476562 C 266.476562 449.476562 264.226562 447.523438 262.125 444.226562 L 264.523438 441.898438 C 266.476562 444.675781 268.949219 446.101562 271.800781 446.101562 C 274.648438 446.101562 277.875 443.925781 278.550781 440.175781 L 278.925781 438 C 277.273438 439.574219 274.949219 440.398438 272.550781 440.398438 C 267.898438 440.398438 264.824219 437.476562 264.824219 432.976562 C 264.824219 428.476562 264.898438 431.550781 265.125 430.425781 L 267.375 417.75 L 270.976562 417.75 L 268.648438 430.574219 C 268.5 431.398438 268.425781 432.074219 268.425781 432.523438 C 268.425781 435.449219 270.375 437.175781 273.449219 437.175781 C 276.523438 437.175781 279.523438 435.148438 280.125 431.625 L 282.523438 417.824219 Z M 286.125 417.824219 " fill-opacity="1" fill-rule="nonzero"/><path fill="#333333" d="M 303.226562 417.300781 C 309.601562 417.300781 314.550781 422.175781 314.550781 428.625 C 314.699219 435.300781 308.699219 441.226562 301.875 441.074219 C 295.5 441.074219 290.625 436.199219 290.625 429.75 C 290.476562 423.074219 296.476562 417.148438 303.226562 417.300781 Z M 303.074219 420.601562 C 298.199219 420.601562 294.300781 424.648438 294.300781 429.75 C 294.300781 434.851562 294.976562 434.023438 296.476562 435.523438 C 297.898438 437.023438 299.773438 437.773438 302.023438 437.773438 C 307.050781 437.773438 310.875 433.726562 310.875 428.625 C 310.875 423.523438 307.574219 420.675781 303.074219 420.675781 Z M 303.074219 420.601562 " fill-opacity="1" fill-rule="nonzero"/><path fill="#333333" d="M 320.324219 430.875 L 322.574219 417.824219 L 326.175781 417.824219 L 323.773438 431.324219 C 323.773438 431.625 323.699219 432.074219 323.699219 432.675781 C 323.699219 435.675781 325.949219 437.773438 329.101562 437.773438 C 332.25 437.773438 334.726562 435.675781 335.324219 432.449219 L 337.875 417.824219 L 341.476562 417.824219 L 338.925781 432.523438 C 338.476562 435.074219 337.351562 437.175781 335.550781 438.75 C 333.75 440.324219 331.574219 441.074219 329.023438 441.074219 C 323.851562 441.074219 320.25 437.625 320.25 432.824219 C 320.25 428.023438 320.25 431.550781 320.398438 430.875 Z M 320.324219 430.875 " fill-opacity="1" fill-rule="nonzero"/><path fill="#333333" d="M 360.824219 421.050781 C 360.074219 420.898438 359.398438 420.898438 358.800781 420.898438 C 354.898438 420.898438 351.898438 423.449219 351.300781 427.273438 L 348.976562 440.625 L 345.375 440.625 L 349.425781 417.898438 L 352.800781 417.898438 L 352.351562 420.375 C 354.074219 418.574219 356.398438 417.601562 359.101562 417.601562 C 361.800781 417.601562 360.75 417.75 361.5 417.976562 L 360.898438 421.125 Z M 360.824219 421.050781 " fill-opacity="1" fill-rule="nonzero"/><path fill="#333333" d="M 377.773438 409.726562 L 398.023438 409.726562 L 398.023438 415.425781 L 384.074219 415.425781 L 384.074219 423.148438 L 395.550781 423.148438 L 395.550781 428.851562 L 384.074219 428.851562 L 384.074219 440.550781 L 377.773438 440.550781 Z M 377.773438 409.726562 " fill-opacity="1" fill-rule="nonzero"/><path fill="#333333" d="M 405.824219 405.148438 C 408.074219 405.148438 409.875 406.800781 409.875 409.050781 C 409.875 411.300781 408.074219 412.949219 405.824219 412.949219 C 403.574219 412.949219 401.773438 411.300781 401.773438 409.050781 C 401.773438 406.800781 403.574219 405.148438 405.824219 405.148438 Z M 402.75 417.449219 L 409.050781 417.449219 L 409.050781 440.550781 L 402.75 440.550781 Z M 402.75 417.449219 " fill-opacity="1" fill-rule="nonzero"/><path fill="#333333" d="M 437.25 440.550781 L 431.023438 440.550781 L 431.023438 427.050781 C 431.023438 424.425781 429.300781 422.550781 426.75 422.550781 C 424.199219 422.550781 422.324219 424.351562 422.324219 427.050781 L 422.324219 440.550781 L 416.023438 440.550781 L 416.023438 417.449219 L 421.800781 417.449219 L 421.800781 419.550781 C 423.449219 417.898438 425.851562 416.925781 428.550781 416.925781 C 433.949219 416.925781 437.25 420.601562 437.25 426.226562 Z M 437.25 440.550781 " fill-opacity="1" fill-rule="nonzero"/><path fill="#333333" d="M 467.175781 417.449219 L 467.175781 438 C 467.175781 445.5 462.449219 449.550781 455.25 449.550781 C 448.050781 449.550781 447.148438 448.125 443.925781 445.273438 L 447.226562 440.851562 C 449.773438 442.800781 451.949219 443.851562 454.726562 443.851562 C 457.5 443.851562 460.875 441.976562 460.875 438.375 L 460.875 437.101562 C 459.226562 438.898438 456.75 439.875 453.824219 439.875 C 447.449219 439.875 442.726562 435.148438 442.726562 428.398438 C 442.726562 421.648438 447.449219 416.925781 453.824219 416.925781 C 460.199219 416.925781 459.75 418.125 461.398438 420.300781 L 461.398438 417.375 L 467.175781 417.375 Z M 455.101562 422.324219 C 451.726562 422.324219 449.101562 424.648438 449.101562 428.324219 C 449.101562 432 451.726562 434.550781 455.101562 434.550781 C 458.476562 434.550781 460.949219 432.226562 460.949219 428.324219 C 460.949219 424.425781 458.324219 422.324219 455.101562 422.324219 Z M 455.101562 422.324219 " fill-opacity="1" fill-rule="nonzero"/><path fill="#333333" d="M 479.101562 431.101562 C 479.851562 434.023438 482.25 435.675781 485.625 435.675781 C 489 435.675781 490.050781 434.851562 492.074219 433.351562 L 494.699219 437.625 C 491.925781 439.949219 488.851562 441.074219 485.476562 441.074219 C 478.351562 441.226562 472.648438 435.675781 472.800781 429 C 472.648438 422.324219 478.199219 416.773438 484.875 416.925781 C 491.25 416.925781 495.75 421.648438 495.75 427.648438 C 495.75 433.648438 495.601562 429.976562 495.300781 431.101562 Z M 489.601562 426.675781 C 489.601562 423.824219 487.351562 422.023438 484.574219 422.023438 C 481.800781 422.023438 479.773438 423.824219 479.101562 426.675781 Z M 489.601562 426.675781 " fill-opacity="1" fill-rule="nonzero"/><path fill="#333333" d="M 515.625 423 L 513.976562 423 C 510.226562 423 507.75 425.023438 507.75 429 L 507.75 440.550781 L 501.449219 440.550781 L 501.449219 417.449219 L 507.226562 417.449219 L 507.226562 420.226562 C 508.800781 418.273438 510.976562 417.226562 513.601562 417.226562 C 516.226562 417.226562 515.023438 417.300781 515.625 417.523438 L 515.625 423.074219 Z M 515.625 423 " fill-opacity="1" fill-rule="nonzero"/><path fill="#333333" d="M 535.726562 440.550781 C 534.226562 440.925781 532.800781 441.074219 531.375 441.074219 C 525.523438 441.074219 522.148438 438.148438 522.148438 432.375 L 522.148438 422.699219 L 518.476562 422.699219 L 518.476562 417.375 L 522.148438 417.375 L 522.148438 411.523438 L 528.449219 411.523438 L 528.449219 417.375 L 534.976562 417.375 L 534.976562 422.699219 L 528.449219 422.699219 L 528.449219 431.773438 C 528.449219 434.398438 529.726562 435.375 532.726562 435.375 C 535.726562 435.375 534.074219 435.375 535.726562 435.148438 Z M 535.726562 440.550781 " fill-opacity="1" fill-rule="nonzero"/><path fill="#333333" d="M 544.199219 405.148438 C 546.449219 405.148438 548.25 406.800781 548.25 409.050781 C 548.25 411.300781 546.449219 412.949219 544.199219 412.949219 C 541.949219 412.949219 540.148438 411.300781 540.148438 409.050781 C 540.148438 406.800781 541.949219 405.148438 544.199219 405.148438 Z M 541.125 417.449219 L 547.425781 417.449219 L 547.425781 440.550781 L 541.125 440.550781 Z M 541.125 417.449219 " fill-opacity="1" fill-rule="nonzero"/><path fill="#333333" d="M 567.601562 441.148438 C 564.824219 441.148438 562.351562 440.175781 560.699219 438.375 L 560.699219 449.023438 L 554.398438 449.023438 L 554.398438 417.523438 L 560.175781 417.523438 L 560.175781 420.449219 C 561.75 418.273438 564.449219 417.074219 567.601562 417.074219 C 574.050781 417.074219 578.773438 422.25 578.773438 429.148438 C 578.773438 436.050781 573.976562 441.300781 567.601562 441.300781 Z M 566.398438 422.625 C 563.25 422.625 560.550781 424.800781 560.550781 429 C 560.550781 433.199219 563.175781 435.375 566.398438 435.375 C 569.625 435.375 572.398438 432.824219 572.398438 429 C 572.398438 425.175781 569.851562 422.625 566.398438 422.625 Z M 566.398438 422.625 " fill-opacity="1" fill-rule="nonzero"/><path fill="#333333" d="M 585.226562 432.824219 C 587.25 434.925781 589.425781 435.976562 591.75 435.976562 C 594.074219 435.976562 594.675781 435.300781 594.675781 434.023438 C 594.675781 432.75 594 432.675781 592.273438 431.925781 L 589.800781 430.875 C 585.523438 429.148438 583.5 427.199219 583.5 423.824219 C 583.5 420.449219 586.949219 416.925781 591.976562 416.925781 C 597 416.925781 598.199219 418.125 600.300781 420.375 L 597.148438 424.273438 C 595.574219 422.851562 593.851562 422.101562 591.976562 422.101562 C 590.101562 422.101562 589.5 422.625 589.5 423.75 C 589.5 424.875 590.101562 425.023438 591.898438 425.773438 L 594.148438 426.675781 C 598.648438 428.476562 600.675781 430.351562 600.675781 433.726562 C 600.675781 437.101562 599.851562 437.851562 598.125 439.125 C 596.476562 440.398438 594.300781 441.074219 591.675781 441.074219 C 587.625 441.074219 584.175781 439.425781 582.074219 436.574219 L 585.226562 432.75 Z M 585.226562 432.824219 " fill-opacity="1" fill-rule="nonzero"/></svg>